# xmcd
#
# Track frame offsets:
#	150
#	62633
#	197608
#	304986
#
# Disc length: 4677 seconds
#
# Revision: 1
# Processed by: cddbd v1.5.2PL0 Copyright (c) Steve Scherf et al.
# Submitted via: audiograbber 1.83.01
#
DISCID=31124304
DTITLE=Klaus Schulze - Ballett 3 and 4 [CD 2) - Ballett 4 [ex: Contemporary Works
DTITLE=[CD 09) [2000]]
DYEAR=2017
DGENRE=Electronic
TTITLE0=Mellowtrone
TTITLE1=Soft 'n' Groovy
TTITLE2=To B Flat
TTITLE3=Eleven 2 Eleven [bonus track]
EXTD=
EXTT0=
EXTT1=
EXTT2=
EXTT3=
PLAYORDER=
